# xmcd
#
# Track frame offsets:
#	150
#	72897
#	74380
#	75890
#
# Disc length: 1034 seconds
#
# Revision: 1
# Processed by: cddbd v1.5.1PL0 Copyright (c) Steve Scherf et al.
# Submitted via: CDex 1.50Beta5
#
DISCID=29040804
DTITLE=Gファンタジ- - E’S
DYEAR=1900
DGENRE=
TTITLE0=E’Sアンノウンキングダム
TTITLE1=留守電メッセ-ジ(戒)
TTITLE2=留守電     (勇気)
TTITLE3=留守電     (明日香)
EXTD=
EXTT0=
EXTT1=
EXTT2=
EXTT3=
PLAYORDER=
